<?xml version="1.0" encoding="UTF-8"?>
<svg width="24px" height="24px" viewBox="0 0 24 24" version="1.1" xmlns="http://www.w3.org/2000/svg" xmlns:xlink="http://www.w3.org/1999/xlink">
    <!-- Generator: Sketch 52.3 (67297) - http://www.bohemiancoding.com/sketch -->
    <title>Fill 1github_logo</title>
    <desc>Created with Sketch.</desc>
    <g id="Page-1" stroke="none" stroke-width="1" fill="none" fill-rule="evenodd">
        <path d="M12,0 C5.374,0 0,5.373 0,12 C0,17.302 3.438,21.801 8.207,23.387 C8.806,23.498 9,23.127 9,22.81 L9,20.575 C5.662,21.302 4.967,19.16 4.967,19.16 C4.421,17.772 3.635,17.403 3.635,17.403 C2.546,16.659 3.717,16.674 3.717,16.674 C4.922,16.759 5.557,17.911 5.557,17.911 C6.627,19.745 8.364,19.215 9.049,18.908 C9.156,18.133 9.467,17.603 9.811,17.304 C7.145,17.001 4.343,15.972 4.343,11.373 C4.343,10.063 4.812,8.993 5.58,8.152 C5.455,7.85 5.044,6.629 5.696,4.977 C5.696,4.977 6.704,4.654 8.997,6.207 C9.954,5.941 10.981,5.808 12,5.803 C13.019,5.808 14.048,5.941 15.006,6.207 C17.297,4.654 18.303,4.977 18.303,4.977 C18.956,6.629 18.545,7.85 18.421,8.152 C19.19,8.993 19.656,10.063 19.656,11.373 C19.656,15.982 16.849,16.997 14.177,17.294 C14.606,17.666 15,18.397 15,19.517 C15,21.122 15,22.415 15,22.81 C15,23.129 15.192,23.503 15.801,23.386 C20.566,21.797 24,17.301 24,12 C24,5.373 18.627,0 12,0" id="Fill-1" fill="#B8B8B8"></path>
    </g>
</svg>